<svg width="256" height="256" viewBox="0 0 256 256" fill="none" xmlns="http://www.w3.org/2000/svg">
    <defs>
        <linearGradient id="paint0_linear_1_72" x1="69.0023" y1="144.54" x2="99.539" y2="144.54"
                        gradientUnits="userSpaceOnUse">
            <stop stop-color="white" stop-opacity="0.1"/>
            <stop offset="1" stop-color="white" stop-opacity="0"/>
        </linearGradient>
    </defs>
    <path d="M127.945 128.39L39.6176 77.3944L39.6176 179.386L127.945 230.382L127.945 128.39Z" fill="#93AAFC"/>
    <path d="M216.273 77.3944L127.945 128.39L127.945 230.382L216.273 179.386L216.273 77.3944Z" fill="#6580E1"/>
    <path d="M216.273 77.3944L127.945 26.3984L39.6175 77.3944L127.945 128.39L216.273 77.3944Z" fill="#91A1DB"/>
    <rect width="101.614" height="102" transform="matrix(0.866025 -0.5 0 1 40 76.8068)" fill="#879AE0"/>
    <rect width="101.155" height="101.577" transform="matrix(0.866025 0.5 0 1 40 77.4226)" fill="#93AAFC"/>
    <path d="M75.2272 158.519L70.005 149.504C69.3859 148.415 69 147.161 69 146.153C69 145.687 69.2289 145.09 69.4016 144.769L74.2222 136.015L75.2272 158.519Z"
          fill="#01579B"/>
    <path d="M93.1055 148.071L87.8833 139.057C87.4279 138.268 86.4768 137.09 85.6737 136.627C84.9828 136.228 84.3054 135.996 83.8657 136.044L74.2245 136.016L93.1055 148.071Z"
          fill="#40C4FF"/>
    <path d="M81.4543 169.268L94.1104 176.575V170.343L84.6688 161.431L76.0325 159.906L81.4543 169.268Z" fill="#40C4FF"/>
    <path d="M74.2245 154.71C74.2245 156.561 74.4263 157.134 75.2294 158.522L76.0325 159.909L94.1104 170.346L85.2722 153.705L74.2245 136.018V154.71Z"
          fill="#29B6F6"/>
    <path d="M90.2925 145.293L74.2222 136.015L94.1082 170.342L99.5322 173.474V159.165L93.1055 148.071C92.2037 146.51 91.4006 145.933 90.2925 145.293Z"
          fill="#01579B"/>
    <path opacity="0.2"
          d="M75.4291 158.867C74.626 157.476 74.4241 156.447 74.4241 154.826V136.363L74.2222 136.015V154.707C74.2245 156.332 74.2245 156.78 75.4291 158.867Z"
          fill="white"/>
    <path opacity="0.2"
          d="M99.3326 158.821V173.129L93.9085 169.997L94.1104 170.343L99.5345 173.475V159.169L99.3326 158.821Z"
          fill="#263238"/>
    <path opacity="0.2"
          d="M93.1055 148.071C92.1095 146.352 91.293 145.87 90.0929 145.178L74.2245 136.016L74.4263 136.364L90.0951 145.411C90.6918 145.755 92.2059 146.513 93.1055 148.071Z"
          fill="white"/>
    <path opacity="0.2"
          d="M99.3326 158.821L93.1055 148.071L87.8833 139.057C87.428 138.268 86.4768 137.09 85.6738 136.627C84.9829 136.228 84.3054 135.996 83.8658 136.044L74.2245 136.016L69.4039 144.771C69.2311 145.091 69.0023 145.688 69.0023 146.155C69.0023 147.162 69.3881 148.416 70.0073 149.505L74.8212 157.774C74.9356 158.002 75.0702 158.245 75.2317 158.521L75.4336 158.87L76.037 159.911L81.2592 168.926L81.4611 169.274L93.9153 176.465L94.1172 176.581V170.35L99.5412 173.481V173.466V159.173L99.3326 158.821Z"
          fill="url(#paint0_linear_1_72)"/>
    <rect width="101.614" height="102" transform="matrix(0.866025 -0.5 0 1 128 128)" fill="#6580E1"/>
    <path d="M138.307 158.796V169.668L137.372 170.208V157.212L138.307 156.672L142.656 162.945L147.021 151.641L147.972 151.092V164.088L147.037 164.628V153.756L142.656 164.925L138.307 158.796ZM153.844 159.798C154.395 159.48 154.883 159.042 155.309 158.484C155.746 157.92 156.084 157.293 156.323 156.603C156.572 155.895 156.697 155.187 156.697 154.479C156.697 153.771 156.572 153.213 156.323 152.805C156.084 152.379 155.746 152.136 155.309 152.076C154.883 152.01 154.395 152.136 153.844 152.454C153.304 152.766 152.815 153.204 152.379 153.768C151.953 154.326 151.62 154.956 151.381 155.658C151.142 156.348 151.023 157.047 151.023 157.755C151.023 158.463 151.142 159.03 151.381 159.456C151.62 159.87 151.953 160.11 152.379 160.176C152.815 160.236 153.304 160.11 153.844 159.798ZM153.86 151.491C154.587 151.071 155.237 150.894 155.808 150.96C156.38 151.014 156.827 151.302 157.149 151.824C157.471 152.346 157.632 153.051 157.632 153.939C157.632 154.827 157.471 155.718 157.149 156.612C156.827 157.506 156.38 158.316 155.808 159.042C155.237 159.756 154.587 160.323 153.86 160.743C153.122 161.169 152.467 161.355 151.896 161.301C151.334 161.229 150.893 160.938 150.571 160.428C150.248 159.906 150.087 159.195 150.087 158.295C150.087 157.395 150.248 156.504 150.571 155.622C150.893 154.728 151.334 153.927 151.896 153.219C152.467 152.493 153.122 151.917 153.86 151.491ZM162.918 155.603C162.18 156.029 161.525 156.209 160.954 156.143C160.382 156.077 159.935 155.783 159.613 155.261C159.291 154.727 159.13 154.01 159.13 153.11C159.13 152.21 159.291 151.313 159.613 150.419C159.935 149.513 160.382 148.697 160.954 147.971C161.525 147.245 162.18 146.669 162.918 146.243C163.323 146.009 163.708 145.877 164.071 145.847C164.446 145.799 164.778 145.859 165.069 146.027C165.37 146.177 165.609 146.429 165.786 146.783V140.807L166.721 140.267V153.263L165.786 153.803V151.733C165.516 152.597 165.121 153.371 164.601 154.055C164.092 154.733 163.531 155.249 162.918 155.603ZM162.949 154.631C163.448 154.343 163.916 153.905 164.352 153.317C164.788 152.729 165.137 152.072 165.396 151.346C165.667 150.614 165.802 149.918 165.802 149.258C165.802 148.598 165.667 148.058 165.396 147.638C165.137 147.212 164.788 146.957 164.352 146.873C163.916 146.789 163.448 146.891 162.949 147.179C162.398 147.497 161.899 147.947 161.453 148.529C161.016 149.093 160.673 149.729 160.424 150.437C160.185 151.139 160.065 151.85 160.065 152.57C160.065 153.29 160.185 153.863 160.424 154.289C160.673 154.709 161.016 154.955 161.453 155.027C161.899 155.081 162.398 154.949 162.949 154.631ZM174.789 143.565C174.758 143.031 174.648 142.572 174.461 142.188C174.285 141.798 174.009 141.561 173.635 141.477C173.271 141.375 172.819 141.486 172.279 141.81C171.78 142.098 171.323 142.5 170.907 143.016C170.502 143.526 170.175 144.099 169.925 144.735C169.676 145.359 169.53 145.995 169.489 146.643L174.789 143.565ZM175.428 141.522C175.594 141.942 175.688 142.38 175.708 142.836C175.74 143.274 175.745 143.649 175.724 143.961V143.997L169.489 147.597C169.53 148.185 169.676 148.647 169.925 148.983C170.175 149.307 170.502 149.49 170.907 149.532C171.312 149.562 171.759 149.436 172.248 149.154C172.996 148.722 173.552 148.239 173.916 147.705C174.279 147.171 174.544 146.682 174.711 146.238L174.742 146.166L175.475 146.229C175.246 146.925 174.856 147.63 174.305 148.344C173.765 149.04 173.079 149.628 172.248 150.108C171.52 150.528 170.876 150.708 170.315 150.648C169.754 150.576 169.317 150.282 169.005 149.766C168.694 149.238 168.538 148.53 168.538 147.642C168.538 146.742 168.694 145.854 169.005 144.978C169.317 144.09 169.754 143.292 170.315 142.584C170.876 141.864 171.52 141.294 172.248 140.874C172.954 140.466 173.531 140.295 173.978 140.361C174.435 140.421 174.763 140.574 174.96 140.82C175.168 141.048 175.319 141.273 175.412 141.495L175.428 141.522ZM178.367 133.543V146.539L177.432 147.079V134.083L178.367 133.543ZM148.019 180.355C148.019 181.555 147.79 182.725 147.333 183.865C146.876 184.993 146.247 186.022 145.447 186.952C144.657 187.876 143.763 188.638 142.765 189.238C141.695 189.856 140.744 190.123 139.913 190.039C139.081 189.955 138.432 189.544 137.964 188.806C137.496 188.068 137.263 187.057 137.263 185.773C137.263 184.489 137.496 183.214 137.964 181.948C138.432 180.67 139.081 179.509 139.913 178.465C140.744 177.421 141.695 176.59 142.765 175.972C143.888 175.324 144.844 175.078 145.634 175.234C146.434 175.372 147.031 175.765 147.426 176.413L146.6 177.358C146.288 176.806 145.8 176.464 145.135 176.332C144.48 176.194 143.69 176.392 142.765 176.926C141.882 177.436 141.092 178.138 140.396 179.032C139.7 179.914 139.159 180.898 138.775 181.984C138.39 183.058 138.198 184.141 138.198 185.233C138.198 186.325 138.39 187.192 138.775 187.834C139.159 188.476 139.7 188.842 140.396 188.932C141.092 189.01 141.882 188.794 142.765 188.284C143.628 187.738 144.387 187.084 145.041 186.322C145.706 185.554 146.221 184.711 146.585 183.793C146.959 182.857 147.141 181.888 147.13 180.886L142.968 183.289V182.317L148.034 179.392L148.019 180.355ZM156.003 176.411C155.972 175.877 155.863 175.418 155.676 175.034C155.499 174.644 155.224 174.407 154.85 174.323C154.486 174.221 154.034 174.332 153.494 174.656C152.995 174.944 152.538 175.346 152.122 175.862C151.717 176.372 151.389 176.945 151.14 177.581C150.89 178.205 150.745 178.841 150.703 179.489L156.003 176.411ZM156.643 174.368C156.809 174.788 156.902 175.226 156.923 175.682C156.954 176.12 156.959 176.495 156.939 176.807V176.843L150.703 180.443C150.745 181.031 150.89 181.493 151.14 181.829C151.389 182.153 151.717 182.336 152.122 182.378C152.527 182.408 152.974 182.282 153.462 182C154.211 181.568 154.767 181.085 155.13 180.551C155.494 180.017 155.759 179.528 155.925 179.084L155.957 179.012L156.689 179.075C156.461 179.771 156.071 180.476 155.52 181.19C154.98 181.886 154.294 182.474 153.462 182.954C152.735 183.374 152.091 183.554 151.53 183.494C150.968 183.422 150.532 183.128 150.22 182.612C149.908 182.084 149.752 181.376 149.752 180.488C149.752 179.588 149.908 178.7 150.22 177.824C150.532 176.936 150.968 176.138 151.53 175.43C152.091 174.71 152.735 174.14 153.462 173.72C154.169 173.312 154.746 173.141 155.193 173.207C155.65 173.267 155.977 173.42 156.175 173.666C156.383 173.894 156.533 174.119 156.627 174.341L156.643 174.368ZM164.274 171.168C164.274 170.376 164.077 169.848 163.682 169.584C163.287 169.308 162.783 169.347 162.17 169.701C161.702 169.971 161.276 170.343 160.891 170.817C160.517 171.273 160.226 171.759 160.019 172.275C159.811 172.791 159.707 173.277 159.707 173.733V179.313L158.771 179.853V170.691L159.707 170.151V171.735C159.925 171.153 160.263 170.586 160.72 170.034C161.188 169.464 161.671 169.035 162.17 168.747C162.762 168.405 163.287 168.246 163.744 168.27C164.212 168.288 164.57 168.489 164.82 168.873C165.08 169.251 165.209 169.776 165.209 170.448V176.136L164.274 176.676V171.168ZM173.266 166.444C173.235 165.91 173.126 165.451 172.939 165.067C172.762 164.677 172.487 164.44 172.113 164.356C171.749 164.254 171.297 164.365 170.757 164.689C170.258 164.977 169.801 165.379 169.385 165.895C168.98 166.405 168.652 166.978 168.403 167.614C168.153 168.238 168.008 168.874 167.966 169.522L173.266 166.444ZM173.906 164.401C174.072 164.821 174.165 165.259 174.186 165.715C174.217 166.153 174.222 166.528 174.202 166.84V166.876L167.966 170.476C168.008 171.064 168.153 171.526 168.403 171.862C168.652 172.186 168.98 172.369 169.385 172.411C169.79 172.441 170.237 172.315 170.725 172.033C171.474 171.601 172.03 171.118 172.393 170.584C172.757 170.05 173.022 169.561 173.188 169.117L173.22 169.045L173.952 169.108C173.724 169.804 173.334 170.509 172.783 171.223C172.243 171.919 171.557 172.507 170.725 172.987C169.998 173.407 169.354 173.587 168.793 173.527C168.231 173.455 167.795 173.161 167.483 172.645C167.171 172.117 167.015 171.409 167.015 170.521C167.015 169.621 167.171 168.733 167.483 167.857C167.795 166.969 168.231 166.171 168.793 165.463C169.354 164.743 169.998 164.173 170.725 163.753C171.432 163.345 172.009 163.174 172.456 163.24C172.913 163.3 173.24 163.453 173.438 163.699C173.646 163.927 173.796 164.152 173.89 164.374L173.906 164.401ZM176.892 162.299C177.131 161.537 177.51 160.808 178.03 160.112C178.56 159.41 179.126 158.885 179.729 158.537V159.563C179.24 159.845 178.778 160.274 178.342 160.85C177.905 161.426 177.552 162.062 177.282 162.758C177.022 163.436 176.892 164.075 176.892 164.675V169.391L175.957 169.931V160.769L176.892 160.229V162.299ZM184.396 164.212C184.885 163.93 185.342 163.51 185.768 162.952C186.204 162.376 186.553 161.737 186.812 161.035C187.072 160.321 187.202 159.622 187.202 158.938C187.202 158.254 187.072 157.711 186.812 157.309C186.553 156.895 186.204 156.658 185.768 156.598C185.342 156.52 184.885 156.622 184.396 156.904C183.856 157.216 183.373 157.651 182.946 158.209C182.531 158.761 182.203 159.382 181.964 160.072C181.725 160.762 181.606 161.461 181.606 162.169C181.606 162.877 181.725 163.438 181.964 163.852C182.203 164.266 182.531 164.509 182.946 164.581C183.373 164.647 183.856 164.524 184.396 164.212ZM188.106 162.916L187.171 163.456V161.458C186.973 162.004 186.729 162.523 186.438 163.015C186.158 163.489 185.841 163.912 185.487 164.284C185.134 164.656 184.765 164.953 184.381 165.175C183.664 165.589 183.024 165.766 182.463 165.706C181.902 165.634 181.46 165.343 181.138 164.833C180.826 164.305 180.671 163.597 180.671 162.709C180.671 161.821 180.826 160.939 181.138 160.063C181.46 159.169 181.902 158.368 182.463 157.66C183.024 156.94 183.664 156.373 184.381 155.959C184.942 155.635 185.472 155.509 185.971 155.581C186.469 155.653 186.87 155.932 187.171 156.418V154.294L188.106 153.754V162.916ZM192.845 160.216C192.461 160.438 192.113 160.537 191.801 160.513C191.499 160.483 191.26 160.339 191.084 160.081C190.907 159.811 190.814 159.445 190.803 158.983V149.785L191.738 149.245V158.335C191.738 158.755 191.842 159.055 192.05 159.235C192.258 159.415 192.523 159.412 192.845 159.226C193.032 159.118 193.245 158.965 193.484 158.767C193.536 158.725 193.588 158.683 193.64 158.641L193.812 159.532C193.458 159.82 193.136 160.048 192.845 160.216ZM189.463 152.989L193.469 150.676V151.63L189.463 153.943V152.989ZM198.737 155.879C199.288 155.561 199.776 155.123 200.202 154.565C200.639 154.001 200.977 153.374 201.216 152.684C201.465 151.976 201.59 151.268 201.59 150.56C201.59 149.852 201.465 149.294 201.216 148.886C200.977 148.46 200.639 148.217 200.202 148.157C199.776 148.091 199.288 148.217 198.737 148.535C198.197 148.847 197.708 149.285 197.272 149.849C196.846 150.407 196.513 151.037 196.274 151.739C196.035 152.429 195.916 153.128 195.916 153.836C195.916 154.544 196.035 155.111 196.274 155.537C196.513 155.951 196.846 156.191 197.272 156.257C197.708 156.317 198.197 156.191 198.737 155.879ZM198.753 147.572C199.48 147.152 200.13 146.975 200.701 147.041C201.273 147.095 201.72 147.383 202.042 147.905C202.364 148.427 202.525 149.132 202.525 150.02C202.525 150.908 202.364 151.799 202.042 152.693C201.72 153.587 201.273 154.397 200.701 155.123C200.13 155.837 199.48 156.404 198.753 156.824C198.015 157.25 197.36 157.436 196.789 157.382C196.227 157.31 195.786 157.019 195.464 156.509C195.141 155.987 194.98 155.276 194.98 154.376C194.98 153.476 195.141 152.585 195.464 151.703C195.786 150.809 196.227 150.008 196.789 149.3C197.36 148.574 198.015 147.998 198.753 147.572ZM205.176 145.969C205.415 145.207 205.795 144.478 206.314 143.782C206.844 143.08 207.411 142.555 208.013 142.207V143.233C207.525 143.515 207.063 143.944 206.626 144.52C206.19 145.096 205.836 145.732 205.566 146.428C205.306 147.106 205.176 147.745 205.176 148.345V153.061L204.241 153.601V144.439L205.176 143.899V145.969Z"
          fill="white"/>

</svg>
